<svg width="14" height="19" viewBox="0 0 14 19" fill="none" xmlns="http://www.w3.org/2000/svg">
<path d="M7 19C7 19 14 12.2479 14 7.125C14 5.23533 13.2625 3.42306 11.9497 2.08686C10.637 0.750667 8.85651 0 7 0C5.14348 0 3.36301 0.750667 2.05025 2.08686C0.737498 3.42306 2.76642e-08 5.23533 0 7.125C0 12.2479 7 19 7 19ZM7 10.6875C6.07174 10.6875 5.1815 10.3122 4.52513 9.64407C3.86875 8.97597 3.5 8.06983 3.5 7.125C3.5 6.18017 3.86875 5.27403 4.52513 4.60593C5.1815 3.93783 6.07174 3.5625 7 3.5625C7.92826 3.5625 8.8185 3.93783 9.47487 4.60593C10.1313 5.27403 10.5 6.18017 10.5 7.125C10.5 8.06983 10.1313 8.97597 9.47487 9.64407C8.8185 10.3122 7.92826 10.6875 7 10.6875Z" fill="white"/>
</svg>
